<?xml version="1.0" encoding="utf-8"?>
<!-- Generator: Adobe Illustrator 16.0.0, SVG Export Plug-In . SVG Version: 6.00 Build 0)  -->
<!DOCTYPE svg PUBLIC "-//W3C//DTD SVG 1.1//EN" "http://www.w3.org/Graphics/SVG/1.1/DTD/svg11.dtd">
<svg version="1.1" id="Layer_1" xmlns="http://www.w3.org/2000/svg" xmlns:xlink="http://www.w3.org/1999/xlink" x="0px" y="0px"
	 width="373.25px" height="46.5px" viewBox="0 0 373.25 46.5" enable-background="new 0 0 373.25 46.5" xml:space="preserve">
<path fill="#6A3C84" stroke="#6A3C84" stroke-width="0.2703" stroke-miterlimit="10" d="M4.059,1.782h0.304
	c0.912,0,1.402,0.591,1.469,1.773C5.9,4.771,5.951,6.106,5.985,7.559c0.034,1.486,0.084,2.973,0.152,4.459
	c0.102,2.77,0.355,5.27,0.76,7.5c0.372,2.229,1.081,3.378,2.128,3.446c1.453,0.101,2.669-0.997,3.648-3.294
	c0.946-2.297,1.655-4.864,2.128-7.702c0.27-1.554,0.456-3.074,0.557-4.561c0.102-1.486,0.135-2.821,0.102-4.003
	c0.27-0.574,0.76-0.76,1.469-0.558c0.743,0.203,1.166,0.676,1.267,1.419c-0.034,4.189-0.051,8.04-0.051,11.553
	c0,3.547-0.067,6.739-0.203,9.577c-0.203,5.304-0.794,9.391-1.773,12.263c-1.014,2.905-2.922,4.543-5.726,4.915h-0.405
	c-1.047,0.034-1.892-0.473-2.534-1.52c-0.743-1.183-1.182-2.567-1.317-4.155c-0.102-1.047-0.034-2.094,0.203-3.142
	c0.203-1.047,0.574-1.976,1.115-2.787c0.338-0.507,0.743-0.929,1.216-1.267c0.473-0.338,1.03-0.591,1.672-0.76
	c0.271,0.068,0.456,0.22,0.558,0.456c0.101,0.271,0.051,0.558-0.152,0.861c-0.439,0.034-0.845,0.152-1.216,0.355
	c-0.338,0.236-0.642,0.541-0.912,0.912c-0.439,0.574-0.76,1.267-0.963,2.078c-0.169,0.844-0.253,1.672-0.253,2.483
	c0,1.284,0.237,2.415,0.709,3.395c0.439,0.946,1.064,1.385,1.875,1.317c0.811-0.102,1.503-0.524,2.078-1.267
	c0.541-0.777,0.997-1.773,1.368-2.989c0.675-2.297,1.081-5.152,1.216-8.564c0.135-3.412,0.135-6.722,0-9.932
	c-0.067,0.372-0.338,1.149-0.811,2.331c-0.473,1.182-1.148,2.196-2.027,3.041c-0.372,0.337-0.777,0.625-1.216,0.861
	c-0.439,0.203-0.929,0.304-1.469,0.304c-1.284-0.067-2.331-0.405-3.142-1.013c-0.811-0.574-1.453-1.352-1.926-2.331
	c-0.507-1.013-0.861-2.179-1.064-3.496c-0.203-1.284-0.338-2.602-0.405-3.953c-0.102-2.534-0.135-4.864-0.102-6.993
	S2.185,3.454,1.374,3.15C2.016,2.373,2.911,1.917,4.059,1.782z"/>
<path fill="#6A3C84" stroke="#6A3C84" stroke-width="0.25" stroke-miterlimit="10" d="M29.757,13.582
	c0.719-0.938,1.766-1.359,3.141-1.266c1.969,0.125,3.391,1.234,4.266,3.328c0.75,1.719,1.125,3.562,1.125,5.531
	c0,0.406-0.016,0.828-0.047,1.266c-0.125,1.688-0.5,3.297-1.125,4.828c-0.594,1.531-1.453,2.766-2.578,3.703
	c-0.688,0.625-1.484,1.078-2.391,1.359c-0.656,0.25-1.375,0.375-2.156,0.375c-0.25,0-0.516-0.016-0.797-0.047
	c-0.875-0.094-1.672-0.344-2.391-0.75s-1.344-0.938-1.875-1.594c-0.531-0.625-0.984-1.344-1.359-2.156
	c-0.344-0.812-0.609-1.688-0.797-2.625c-0.219-1.031-0.328-2.094-0.328-3.188c0-0.688,0.047-1.391,0.141-2.109
	c0.219-1.844,0.734-3.484,1.547-4.922c0.531-0.969,1.203-1.781,2.016-2.438c0.781-0.688,1.703-1.156,2.766-1.406
	c0.062-0.031,0.125-0.047,0.188-0.047c0.312,0.031,0.531,0.172,0.656,0.422c0.156,0.344,0.125,0.656-0.094,0.938
	c-0.625,0.094-1.188,0.312-1.688,0.656c-0.5,0.375-0.938,0.844-1.312,1.406c-0.719,1.062-1.219,2.375-1.5,3.938
	c-0.312,1.562-0.406,3.141-0.281,4.734c0.125,2,0.578,3.781,1.359,5.344c0.75,1.562,1.812,2.406,3.188,2.531
	c0.375,0.031,0.734-0.094,1.078-0.375s0.672-0.688,0.984-1.219c0.562-0.938,1.062-2.188,1.5-3.75
	c0.406-1.562,0.719-3.141,0.938-4.734c0.25-2,0.297-3.797,0.141-5.391s-0.609-2.438-1.359-2.531c-1-0.125-1.734,0.188-2.203,0.938
	c-0.438,0.719-0.562,1.297-0.375,1.734c-0.031,0.25-0.188,0.406-0.469,0.469s-0.516,0-0.703-0.188
	C28.772,15.441,29.038,14.519,29.757,13.582z"/>
<path fill="#6A3C84" stroke="#6A3C84" stroke-width="0.25" stroke-miterlimit="10" d="M45.507,16.816
	c-0.062,1.562-0.078,3.141-0.047,4.734c0.031,2.406,0.203,4.578,0.516,6.516s0.875,2.906,1.688,2.906
	c1.188,0,2.297-1.281,3.328-3.844c1-2.531,1.641-6.422,1.922-11.672c0.219-0.438,0.641-0.531,1.266-0.281
	c0.656,0.219,1,0.594,1.031,1.125c-0.094,0.156-0.141,0.922-0.141,2.297c0,1.406,0.062,2.984,0.188,4.734
	c0.156,2.125,0.422,4.156,0.797,6.094c0.406,1.938,0.938,2.953,1.594,3.047c0.594,0.094,1.203-0.375,1.828-1.406
	c0.625-1,1.188-2.156,1.688-3.469c0.281-0.688,0.547-1.375,0.797-2.062l0.656-1.875c0.219-0.094,0.422-0.141,0.609-0.141
	c0.219,0.031,0.438,0.094,0.656,0.188c-0.156,0.562-0.375,1.234-0.656,2.016l-0.891,2.391c-0.656,1.469-1.406,2.812-2.25,4.031
	c-0.781,1.156-1.609,1.734-2.484,1.734c-0.062,0-0.125-0.016-0.188-0.047c-0.688-0.062-1.297-0.266-1.828-0.609
	s-0.984-0.75-1.359-1.219c-0.75-0.906-1.281-1.875-1.594-2.906c-0.312-1-0.484-1.656-0.516-1.969
	c-0.094,0.25-0.328,0.812-0.703,1.688c-0.406,0.938-0.969,1.75-1.688,2.438c-0.312,0.281-0.656,0.516-1.031,0.703
	c-0.344,0.156-0.734,0.234-1.172,0.234c-1.25,0-2.281-0.266-3.094-0.797c-0.781-0.531-1.406-1.234-1.875-2.109
	c-0.406-0.781-0.688-1.672-0.844-2.672c-0.188-0.969-0.281-1.984-0.281-3.047v-0.469c0-0.719,0.016-1.438,0.047-2.156
	c0.062-0.875,0.141-1.703,0.234-2.484c0.188-1.469,0.375-2.734,0.562-3.797c0.188-1.031,0.219-1.625,0.094-1.781
	c0.5-0.438,1.078-0.688,1.734-0.75h0.188c0.594-0.031,1.078,0.234,1.453,0.797C45.647,13.957,45.569,15.253,45.507,16.816z"/>
<path fill="#6A3C84" stroke="#6A3C84" stroke-width="0.25" stroke-miterlimit="10" d="M89.944,21.691
	c0.844,1.156,1.562,2.375,2.156,3.656c0.375,0.781,0.641,1.562,0.797,2.344c0.094-0.062,0.172-0.125,0.234-0.188
	c1.531-1.094,2.453-2.219,2.766-3.375c0.312-0.25,0.562-0.391,0.75-0.422c0.219,0,0.422,0.125,0.609,0.375
	c-0.156,0.656-0.469,1.297-0.938,1.922c-0.469,0.594-1.016,1.188-1.641,1.781l-1.547,1.312v0.188
	c0.062,1.062-0.031,2.031-0.281,2.906s-0.594,1.641-1.031,2.297c-0.844,1.219-1.859,2.031-3.047,2.438
	c-0.531,0.188-1.016,0.281-1.453,0.281c-0.531,0-1.016-0.156-1.453-0.469c-0.656-0.438-1.031-0.891-1.125-1.359
	c-0.094-0.5,0-0.984,0.281-1.453c0.312-0.531,0.797-1.062,1.453-1.594c0.625-0.531,1.344-1.078,2.156-1.641l0.891-0.656v-0.609
	c-0.031-2.062-0.781-4.156-2.25-6.281l-4.031-5.438c-0.25,1.062-0.516,2.078-0.797,3.047c-0.188,0.75-0.375,1.438-0.562,2.062
	c-0.188,0.656-0.328,1.188-0.422,1.594c-0.219,0.156-0.438,0.219-0.656,0.188s-0.453-0.109-0.703-0.234
	c0.156-0.469,0.344-1.062,0.562-1.781c0.188-0.719,0.406-1.484,0.656-2.297l0.984-3.797c-0.5-0.688-0.953-1.359-1.359-2.016
	c-0.531-0.844-0.859-1.594-0.984-2.25c-0.062-0.375-0.094-0.719-0.094-1.031c0-0.219,0.016-0.422,0.047-0.609
	c0.062-0.469,0.188-0.859,0.375-1.172c0.406-0.625,0.953-0.953,1.641-0.984h0.094c0.625,0,1.172,0.266,1.641,0.797
	c0.25,0.281,0.438,0.656,0.562,1.125s0.172,1.031,0.141,1.688c-0.094,0.844-0.25,1.797-0.469,2.859l2.719,2.859
	C87.804,18.972,88.913,20.285,89.944,21.691z M82.491,9.55c-0.625,0-0.781,0.797-0.469,2.391c0.062,0.344,0.234,0.734,0.516,1.172
	c0.125,0.188,0.25,0.391,0.375,0.609c0.156-0.75,0.266-1.391,0.328-1.922C83.366,10.332,83.116,9.582,82.491,9.55z M86.851,35.238
	c0.562,0.375,1.156-0.094,1.781-1.406c0.312-0.656,0.531-1.344,0.656-2.062c-0.875,0.656-1.594,1.234-2.156,1.734
	C86.319,34.191,86.226,34.769,86.851,35.238z"/>
<path fill="#6A3C84" stroke="#6A3C84" stroke-width="0.25" stroke-miterlimit="10" d="M109.312,31.102
	c-0.344,0.531-0.578,1.047-0.703,1.547c-0.25,1.094-0.031,2.062,0.656,2.906c0.656,0.812,1.453,1.156,2.391,1.031
	c0.406-0.062,0.812-0.234,1.219-0.516s0.797-0.719,1.172-1.312c0.281-0.375,0.484-0.922,0.609-1.641s0.219-1.562,0.281-2.531
	c0.094-1.781,0.109-3.875,0.047-6.281c-0.062-2.438-0.078-4.891-0.047-7.359c0.031-2.062,0.156-4.047,0.375-5.953
	c0.156-1.844,0.469-3.484,0.938-4.922c-0.375-0.094-0.75-0.203-1.125-0.328c-1.969-0.562-3.828-1.062-5.578-1.5
	s-2.875-0.219-3.375,0.656c-0.438-0.062-0.703-0.297-0.797-0.703c-0.031-0.156-0.047-0.312-0.047-0.469
	c0-0.25,0.062-0.484,0.188-0.703c0.375-0.469,0.844-0.781,1.406-0.938s1.203-0.188,1.922-0.094c0.719,0.062,1.5,0.219,2.344,0.469
	l2.484,0.891l3.188,1.266c0.406-0.844,0.891-1.547,1.453-2.109c0.844-0.844,1.938-1.281,3.281-1.312h0.094
	c1.312,0,2.188,0.453,2.625,1.359c0.188,0.406,0.281,0.797,0.281,1.172c0,0.5-0.172,1-0.516,1.5c-0.188,0.25-0.438,0.5-0.75,0.75
	c-0.281,0.219-0.641,0.406-1.078,0.562c-0.906,0.281-1.984,0.312-3.234,0.094l-0.562-0.094c-0.25,1.656-0.391,3.531-0.422,5.625
	c0,1.531,0.031,3.109,0.094,4.734l0.188,4.875c0.094,3.094,0.062,5.969-0.094,8.625c-0.125,2.656-0.656,4.562-1.594,5.719
	c-0.562,0.719-1.156,1.25-1.781,1.594c-0.656,0.344-1.297,0.531-1.922,0.562c-0.156,0.031-0.328,0.047-0.516,0.047
	c-1.281,0-2.422-0.5-3.422-1.5c-1.156-1.094-1.625-2.391-1.406-3.891c0.094-0.719,0.406-1.438,0.938-2.156
	c0.5-0.719,1.25-1.406,2.25-2.062c0.188,0.219,0.281,0.406,0.281,0.562c-0.031,0.156-0.078,0.281-0.141,0.375
	C110.218,30.086,109.687,30.571,109.312,31.102z M123.562,3.399c-0.25-0.938-0.953-1.375-2.109-1.312
	c-1.375,0.125-2.281,1.141-2.719,3.047c-0.031,0.062-0.047,0.109-0.047,0.141c1.281,0.406,2.344,0.469,3.188,0.188
	C123.218,5.024,123.78,4.336,123.562,3.399z"/>
<path fill="#6A3C84" stroke="#6A3C84" stroke-width="0.2402" stroke-miterlimit="10" d="M129.313,16.559
	c0.906-0.058,1.781-0.13,2.625-0.216c0.844-0.087,1.375-0.058,1.594,0.086c0.281,0.778,0.391,1.917,0.328,3.417
	c-0.062,1.5-0.172,3.1-0.328,4.801c-0.062,0.865-0.141,1.745-0.234,2.639l-0.188,2.509c-0.094,1.5-0.094,2.768,0,3.807
	c0.062,1.038,0.344,1.6,0.844,1.687c0.719,0.144,1.516-0.418,2.391-1.687c0.875-1.298,1.688-2.726,2.438-4.283
	c0.469-1.038,0.891-2.033,1.266-2.985s0.656-1.687,0.844-2.206c0.219-0.086,0.422-0.115,0.609-0.086
	c0.219,0,0.438,0.058,0.656,0.173c-0.188,0.606-0.484,1.442-0.891,2.509c-0.438,1.067-0.938,2.177-1.5,3.331
	c-0.875,1.73-1.859,3.302-2.953,4.715c-0.969,1.24-1.922,1.86-2.859,1.86c-0.094,0-0.203-0.015-0.328-0.043
	c-0.719-0.115-1.375-0.433-1.969-0.952s-1.094-1.197-1.5-2.033c-0.75-1.615-1.141-3.749-1.172-6.402
	c0-2.653,0.562-5.652,1.688-8.998c-0.438,0.086-1.297,0.058-2.578-0.086c-0.688-0.058-1.266-0.144-1.734-0.26
	c-0.031,0.087-0.062,0.188-0.094,0.303c-0.344,1.355-0.719,2.668-1.125,3.937l-0.984,3.158c-0.219,0.029-0.438,0.015-0.656-0.043
	c-0.188-0.029-0.391-0.086-0.609-0.173c0.281-0.807,0.594-1.802,0.938-2.984c0.375-1.183,0.734-2.408,1.078-3.677
	c0.094-0.346,0.172-0.678,0.234-0.995c-0.781-0.519-1.438-1.37-1.969-2.552c-0.312-0.692-0.469-1.341-0.469-1.947
	c0-0.433,0.078-0.836,0.234-1.211c0.188-0.375,0.469-0.692,0.844-0.952c0.406-0.26,0.922-0.404,1.547-0.433h0.141
	c1.094-0.029,1.625,0.75,1.594,2.336c-0.031,1.182-0.172,2.465-0.422,3.85c0.25,0.087,0.562,0.13,0.938,0.13
	C128.11,16.631,128.688,16.617,129.313,16.559z M125.095,13.488c0.094,0.865,0.25,1.542,0.469,2.033
	c0.156-0.778,0.281-1.514,0.375-2.206c0.219-1.5,0.062-2.22-0.469-2.163C125.032,11.181,124.907,11.959,125.095,13.488z"/>
<path fill="#6A3C84" stroke="#6A3C84" stroke-width="0.2402" stroke-miterlimit="10" d="M68.5,16.559
	c0.906-0.058,1.781-0.13,2.625-0.216c0.844-0.087,1.375-0.058,1.594,0.086c0.281,0.778,0.391,1.917,0.328,3.417
	c-0.062,1.5-0.172,3.1-0.328,4.801c-0.062,0.865-0.141,1.745-0.234,2.639l-0.188,2.509c-0.094,1.5-0.094,2.768,0,3.807
	c0.062,1.038,0.344,1.6,0.844,1.687c0.719,0.144,1.516-0.418,2.391-1.687c0.875-1.298,1.688-2.726,2.438-4.283
	c0.469-1.038,0.891-2.033,1.266-2.985s0.656-1.687,0.844-2.206c0.219-0.086,0.422-0.115,0.609-0.086
	c0.219,0,0.438,0.058,0.656,0.173c-0.188,0.606-0.484,1.442-0.891,2.509c-0.438,1.067-0.938,2.177-1.5,3.331
	c-0.875,1.73-1.859,3.302-2.953,4.715c-0.969,1.24-1.922,1.86-2.859,1.86c-0.094,0-0.203-0.015-0.328-0.043
	c-0.719-0.115-1.375-0.433-1.969-0.952s-1.094-1.197-1.5-2.033c-0.75-1.615-1.141-3.749-1.172-6.402
	c0-2.653,0.562-5.652,1.688-8.998c-0.438,0.086-1.297,0.058-2.578-0.086c-0.688-0.058-1.266-0.144-1.734-0.26
	c-0.031,0.087-0.062,0.188-0.094,0.303c-0.344,1.355-0.719,2.668-1.125,3.937l-0.984,3.158c-0.219,0.029-0.438,0.015-0.656-0.043
	c-0.188-0.029-0.391-0.086-0.609-0.173c0.281-0.807,0.594-1.802,0.938-2.984c0.375-1.183,0.734-2.408,1.078-3.677
	c0.094-0.346,0.172-0.678,0.234-0.995c-0.781-0.519-1.438-1.37-1.969-2.552c-0.312-0.692-0.469-1.341-0.469-1.947
	c0-0.433,0.078-0.836,0.234-1.211c0.188-0.375,0.469-0.692,0.844-0.952c0.406-0.26,0.922-0.404,1.547-0.433h0.141
	c1.094-0.029,1.625,0.75,1.594,2.336c-0.031,1.182-0.172,2.465-0.422,3.85c0.25,0.087,0.562,0.13,0.938,0.13
	C67.297,16.631,67.875,16.617,68.5,16.559z M64.281,13.488c0.094,0.865,0.25,1.542,0.469,2.033c0.156-0.778,0.281-1.514,0.375-2.206
	c0.219-1.5,0.062-2.22-0.469-2.163C64.219,11.181,64.094,11.959,64.281,13.488z"/>
<path fill="#6A3C84" stroke="#6A3C84" stroke-width="0.2402" stroke-miterlimit="10" d="M304.224,16.559
	c0.906-0.058,1.781-0.13,2.625-0.216c0.844-0.087,1.375-0.058,1.594,0.086c0.281,0.778,0.391,1.917,0.328,3.417
	c-0.062,1.5-0.172,3.1-0.328,4.801c-0.062,0.865-0.141,1.745-0.234,2.639l-0.188,2.509c-0.094,1.5-0.094,2.768,0,3.807
	c0.062,1.038,0.344,1.6,0.844,1.687c0.719,0.144,1.516-0.418,2.391-1.687c0.875-1.298,1.688-2.726,2.438-4.283
	c0.469-1.038,0.891-2.033,1.266-2.985s0.656-1.687,0.844-2.206c0.219-0.086,0.422-0.115,0.609-0.086
	c0.219,0,0.438,0.058,0.656,0.173c-0.188,0.606-0.484,1.442-0.891,2.509c-0.438,1.067-0.938,2.177-1.5,3.331
	c-0.875,1.73-1.859,3.302-2.953,4.715c-0.969,1.24-1.922,1.86-2.859,1.86c-0.094,0-0.203-0.015-0.328-0.043
	c-0.719-0.115-1.375-0.433-1.969-0.952s-1.094-1.197-1.5-2.033c-0.75-1.615-1.141-3.749-1.172-6.402
	c0-2.653,0.562-5.652,1.688-8.998c-0.438,0.086-1.297,0.058-2.578-0.086c-0.688-0.058-1.266-0.144-1.734-0.26
	c-0.031,0.087-0.062,0.188-0.094,0.303c-0.344,1.355-0.719,2.668-1.125,3.937l-0.984,3.158c-0.219,0.029-0.438,0.015-0.656-0.043
	c-0.188-0.029-0.391-0.086-0.609-0.173c0.281-0.807,0.594-1.802,0.938-2.984c0.375-1.183,0.734-2.408,1.078-3.677
	c0.094-0.346,0.172-0.678,0.234-0.995c-0.781-0.519-1.438-1.37-1.969-2.552c-0.312-0.692-0.469-1.341-0.469-1.947
	c0-0.433,0.078-0.836,0.234-1.211c0.188-0.375,0.469-0.692,0.844-0.952c0.406-0.26,0.922-0.404,1.547-0.433h0.141
	c1.094-0.029,1.625,0.75,1.594,2.336c-0.031,1.182-0.172,2.465-0.422,3.85c0.25,0.087,0.562,0.13,0.938,0.13
	C303.021,16.631,303.599,16.617,304.224,16.559z M300.005,13.488c0.094,0.865,0.25,1.542,0.469,2.033
	c0.156-0.778,0.281-1.514,0.375-2.206c0.219-1.5,0.062-2.22-0.469-2.163C299.942,11.181,299.817,11.959,300.005,13.488z"/>
<path fill="#6A3C84" stroke="#6A3C84" stroke-width="0.25" stroke-miterlimit="10" d="M144.454,16.816
	c-0.062,1.562-0.078,3.141-0.047,4.734c0.031,2.406,0.203,4.578,0.516,6.516s0.875,2.906,1.688,2.906
	c1.188,0,2.297-1.281,3.328-3.844c1-2.531,1.641-6.422,1.922-11.672c0.219-0.438,0.641-0.531,1.266-0.281
	c0.656,0.219,1,0.594,1.031,1.125c-0.094,0.156-0.141,0.922-0.141,2.297c0,1.406,0.062,2.984,0.188,4.734
	c0.156,2.125,0.422,4.156,0.797,6.094c0.406,1.938,0.938,2.953,1.594,3.047c0.594,0.094,1.203-0.375,1.828-1.406
	c0.625-1,1.188-2.156,1.688-3.469c0.281-0.688,0.547-1.375,0.797-2.062l0.656-1.875c0.219-0.094,0.422-0.141,0.609-0.141
	c0.219,0.031,0.438,0.094,0.656,0.188c-0.156,0.562-0.375,1.234-0.656,2.016l-0.891,2.391c-0.656,1.469-1.406,2.812-2.25,4.031
	c-0.781,1.156-1.609,1.734-2.484,1.734c-0.062,0-0.125-0.016-0.188-0.047c-0.688-0.062-1.297-0.266-1.828-0.609
	s-0.984-0.75-1.359-1.219c-0.75-0.906-1.281-1.875-1.594-2.906c-0.312-1-0.484-1.656-0.516-1.969
	c-0.094,0.25-0.328,0.812-0.703,1.688c-0.406,0.938-0.969,1.75-1.688,2.438c-0.312,0.281-0.656,0.516-1.031,0.703
	c-0.344,0.156-0.734,0.234-1.172,0.234c-1.25,0-2.281-0.266-3.094-0.797c-0.781-0.531-1.406-1.234-1.875-2.109
	c-0.406-0.781-0.688-1.672-0.844-2.672c-0.188-0.969-0.281-1.984-0.281-3.047v-0.469c0-0.719,0.016-1.438,0.047-2.156
	c0.062-0.875,0.141-1.703,0.234-2.484c0.188-1.469,0.375-2.734,0.562-3.797c0.188-1.031,0.219-1.625,0.094-1.781
	c0.5-0.438,1.078-0.688,1.734-0.75h0.188c0.594-0.031,1.078,0.234,1.453,0.797C144.595,13.957,144.517,15.253,144.454,16.816z"/>
<path fill="#6A3C84" stroke="#6A3C84" stroke-width="0.2443" stroke-miterlimit="10" d="M166.204,30.333
	c0.438,1.85,0.938,2.865,1.5,3.044c1.031,0.298,2.031-0.03,3-0.985s1.828-2.104,2.578-3.446c0.469-0.896,0.891-1.791,1.266-2.686
	c0.375-0.865,0.672-1.626,0.891-2.283c0.219-0.12,0.438-0.194,0.656-0.224c0.219,0,0.438,0.075,0.656,0.224
	c-0.406,1.283-1.016,2.834-1.828,4.655c-0.844,1.82-1.859,3.312-3.047,4.476c-0.656,0.597-1.359,1.044-2.109,1.343
	c-0.406,0.149-0.828,0.224-1.266,0.224c-0.375,0-0.734-0.045-1.078-0.134c-1.531-0.448-2.766-1.447-3.703-2.999
	c-0.938-1.551-1.609-3.401-2.016-5.55c-0.25-1.134-0.406-2.342-0.469-3.625c-0.062-0.865-0.094-1.746-0.094-2.641v-1.164
	c0.062-1.582,0.203-3.133,0.422-4.655c0.219-1.552,0.516-2.999,0.891-4.342c0.719-2.506,1.672-4.505,2.859-5.998
	c0.875-1.074,1.844-1.611,2.906-1.611c0.375,0,0.781,0.075,1.219,0.224c0.781,0.269,1.234,1.06,1.359,2.373
	c0.125,1.312,0.016,2.864-0.328,4.655c-0.156,0.955-0.391,1.939-0.703,2.954c-0.312,1.044-0.656,2.059-1.031,3.043
	c-0.781,1.939-1.672,3.73-2.672,5.371c-0.281,0.448-0.578,0.865-0.891,1.253c0.031,0.626,0.078,1.238,0.141,1.835
	C165.501,26.231,165.798,28.454,166.204,30.333z M168.782,9.968c0.406-1.701,0.641-3.133,0.703-4.297
	c0.031-0.597,0.016-1.104-0.047-1.521c-0.094-0.388-0.25-0.627-0.469-0.716c-0.781-0.358-1.438-0.045-1.969,0.94
	c-0.531,0.955-0.953,2.312-1.266,4.073c-0.156,0.925-0.281,1.939-0.375,3.043s-0.172,2.238-0.234,3.402
	c-0.031,1.462-0.031,2.939,0,4.431v0.134c0.781-1.343,1.469-2.805,2.062-4.386C167.845,13.37,168.376,11.669,168.782,9.968z"/>
<path fill="#6A3C84" stroke="#6A3C84" stroke-width="0.2357" stroke-miterlimit="10" d="M179.439,16.693
	c-0.031,1.361-0.031,2.86,0,4.499c0.031,2,0.172,3.888,0.422,5.666c0.219,1.75,0.656,2.638,1.312,2.666
	c0.531,0,1.031-0.194,1.5-0.583c0.5-0.389,0.953-0.875,1.359-1.458c0.594-0.861,1.078-1.791,1.453-2.791s0.594-1.708,0.656-2.125
	c0.125-0.944,0.203-2.125,0.234-3.541c0.031-1.389,0.047-2.569,0.047-3.542c0.344-0.305,0.828-0.402,1.453-0.292
	c0.625,0.083,1.062,0.403,1.312,0.958c-0.031,0.027-0.062,0.222-0.094,0.583c-0.031,0.389-0.047,0.889-0.047,1.5v4.541
	c0,1.861-0.047,3.847-0.141,5.958l-0.094,1.625l1.828-1.958c1.5-1.694,2.469-3.305,2.906-4.833c0.219-0.167,0.438-0.236,0.656-0.208
	s0.438,0.111,0.656,0.25c-0.25,0.889-0.656,1.791-1.219,2.708c-0.562,0.889-1.203,1.792-1.922,2.708
	c-0.938,1.167-1.953,2.305-3.047,3.416c-0.094,1.306-0.219,2.611-0.375,3.916c-0.312,2.527-0.812,4.583-1.5,6.166
	c-0.375,0.861-0.828,1.542-1.359,2.041c-0.5,0.5-1.094,0.75-1.781,0.75c-1.031,0-1.891-0.417-2.578-1.25
	c-0.688-0.833-1.016-1.819-0.984-2.958c0-0.639,0.141-1.292,0.422-1.958s0.703-1.306,1.266-1.917c0.5-0.555,1.125-1.18,1.875-1.875
	l2.344-2.25c0.062-1.111,0.109-2.235,0.141-3.374c0.062-1.444,0.078-2.777,0.047-4c-0.094,0.25-0.359,0.805-0.797,1.667
	c-0.438,0.917-1.062,1.694-1.875,2.333c-0.344,0.25-0.719,0.472-1.125,0.667c-0.438,0.167-0.891,0.236-1.359,0.208
	c-1.062-0.028-1.953-0.25-2.672-0.667c-0.688-0.444-1.234-1.027-1.641-1.75c-0.438-0.75-0.75-1.611-0.938-2.583
	c-0.156-0.944-0.25-1.944-0.281-3v-1.042c0-1.527,0.078-2.986,0.234-4.375c0.188-1.694,0.156-2.763-0.094-3.208
	c0.625-0.333,1.344-0.5,2.156-0.5h0.141c0.875,0.028,1.375,0.319,1.5,0.875C179.471,14.582,179.471,15.359,179.439,16.693z
	 M182.158,39.647c-0.156,0.527-0.25,1.069-0.281,1.625c-0.031,0.833,0.125,1.583,0.469,2.25c0.312,0.639,0.75,0.958,1.312,0.958
	c0.562,0.028,1.047-1.014,1.453-3.125c0.312-1.833,0.562-3.875,0.75-6.124c-1.094,1.083-2.062,2.083-2.906,3
	C182.611,38.62,182.346,39.092,182.158,39.647z"/>
<path fill="#6A3C84" stroke="#6A3C84" stroke-width="0.254" stroke-miterlimit="10" d="M205.965,3.419
	c0.594-0.032,1.141,0.048,1.641,0.242l0.844,11.077c0.062-0.452,0.359-1.419,0.891-2.902c0.5-1.516,1.156-3.031,1.969-4.546
	c0.469-0.807,0.953-1.564,1.453-2.273c0.5-0.709,1.016-1.29,1.547-1.742c0.406-0.322,0.797-0.548,1.172-0.677
	c0.281-0.097,0.547-0.146,0.797-0.146c0.125,0,0.266,0.016,0.422,0.048c0.594,0.097,1.125,0.371,1.594,0.822
	c0.438,0.452,0.828,1,1.172,1.645c0.375,0.709,0.688,1.483,0.938,2.322c0.25,0.871,0.453,1.757,0.609,2.66
	c0.312,1.709,0.516,3.305,0.609,4.789c0.062,1.516,0.094,2.515,0.094,2.999c0.219-0.742,0.547-1.741,0.984-2.999
	c0.406-1.29,0.938-2.563,1.594-3.821c0.344-0.677,0.719-1.322,1.125-1.935c0.406-0.645,0.844-1.193,1.312-1.645
	c0.562-0.581,1.188-1.016,1.875-1.306c0.656-0.29,1.359-0.355,2.109-0.193c1.312,0.29,2.234,1.354,2.766,3.192
	c0.562,1.838,0.891,4.031,0.984,6.578c0.062,1.387,0.078,2.822,0.047,4.305c-0.031,1.483-0.078,2.95-0.141,4.401
	c-0.094,2.225-0.203,4.321-0.328,6.288c-0.125,1.967-0.156,3.58-0.094,4.837c0,0.677,0.047,1.209,0.141,1.596
	c0.094,0.419,0.234,0.661,0.422,0.726c0.625,0.258,1.047,0.145,1.266-0.338c0.25-0.452,0.281-0.854,0.094-1.209
	c0.25-0.129,0.453-0.226,0.609-0.29s0.344,0.016,0.562,0.242c0.031,0.161,0.047,0.307,0.047,0.436c0,0.677-0.266,1.29-0.797,1.838
	c-0.469,0.484-0.984,0.726-1.547,0.726c-0.188,0-0.391-0.032-0.609-0.097c-0.812-0.258-1.5-0.742-2.062-1.451
	s-1.016-1.596-1.359-2.66c-0.562-1.677-0.922-3.644-1.078-5.901c-0.156-2.29-0.219-4.595-0.188-6.917l0.094-3.579
	c0.062-1.161,0.109-2.257,0.141-3.289c0.094-1.935,0.125-3.531,0.094-4.789c-0.031-1.29-0.234-1.983-0.609-2.08
	c-0.906-0.258-1.844,0.419-2.812,2.031c-0.969,1.613-1.797,3.402-2.484,5.369c-0.469,1.322-0.844,2.58-1.125,3.773
	c-0.312,1.193-0.469,2.112-0.469,2.757c-0.062,0.774-0.094,1.596-0.094,2.467l-0.094,2.563c-0.156,0.581-0.641,0.79-1.453,0.629
	c-0.844-0.161-1.328-0.645-1.453-1.451c0.031-1.387-0.016-2.999-0.141-4.837s-0.297-3.676-0.516-5.514
	c-0.344-2.773-0.766-5.24-1.266-7.401c-0.5-2.192-0.969-3.305-1.406-3.337c-0.781-0.129-1.703,0.661-2.766,2.37
	c-1.062,1.677-1.984,3.612-2.766,5.805c-0.562,1.483-1.016,2.95-1.359,4.401c-0.312,1.483-0.469,2.757-0.469,3.821
	c0,0.548,0.016,1.242,0.047,2.08c0,0.806,0.016,1.693,0.047,2.66l0.188,5.272c0.031,1.773,0.031,3.063,0,3.87
	c-0.812,0.774-1.578,0.838-2.297,0.193c-0.688-0.677-0.969-1.467-0.844-2.37c0.156-0.452,0.25-1.935,0.281-4.45
	c0.031-2.483,0.016-5.24-0.047-8.271c-0.031-2.418-0.094-4.789-0.188-7.11c-0.094-2.29-0.203-4.176-0.328-5.66
	c-0.062-0.806-0.141-1.435-0.234-1.886c-0.062-0.484-0.141-0.726-0.234-0.726C205.012,4.161,205.371,3.484,205.965,3.419z"/>
<path fill="#6A3C84" stroke="#6A3C84" stroke-width="0.25" stroke-miterlimit="10" d="M250.014,17.613
	c-0.25-0.062-0.469-0.156-0.656-0.281c0.312-0.5,0.312-1.312,0-2.438c-0.344-1.125-0.953-1.672-1.828-1.641
	c-0.562,0-1.109,0.516-1.641,1.547c-0.531,1-0.984,2.219-1.359,3.656c-0.219,0.812-0.406,1.641-0.562,2.484
	c-0.156,0.875-0.297,1.719-0.422,2.531c-0.25,2-0.312,3.766-0.188,5.297c0.094,1.531,0.453,2.312,1.078,2.344
	c0.844,0.031,1.812-0.859,2.906-2.672c1.125-1.781,2.109-3.797,2.953-6.047c0.469-1.25,0.859-2.469,1.172-3.656
	c0.344-1.219,0.594-2.312,0.75-3.281c0.156-0.406,0.516-0.531,1.078-0.375c0.562,0.125,0.906,0.438,1.031,0.938
	c-0.156,0.156-0.281,1-0.375,2.531c-0.125,1.531-0.172,3.266-0.141,5.203c0,0.844,0.016,1.688,0.047,2.531
	c0.031,0.812,0.078,1.609,0.141,2.391c0.125,1.406,0.312,2.609,0.562,3.609c0.281,0.969,0.625,1.484,1.031,1.547
	c0.562,0.094,1.172-0.391,1.828-1.453c0.625-1.094,1.219-2.328,1.781-3.703c0.375-0.906,0.719-1.812,1.031-2.719l0.797-2.297
	c0.219-0.094,0.438-0.141,0.656-0.141c0.219,0.031,0.438,0.094,0.656,0.188l-0.844,2.484c-0.344,1-0.734,2.031-1.172,3.094
	c-0.688,1.562-1.453,2.969-2.297,4.219c-0.781,1.156-1.578,1.734-2.391,1.734c-0.062,0-0.141-0.016-0.234-0.047
	c-0.75-0.062-1.406-0.312-1.969-0.75s-1.047-0.953-1.453-1.547c-0.75-1.156-1.266-2.438-1.547-3.844
	c-0.281-1.375-0.422-2.422-0.422-3.141l-0.75,1.688c-0.469,0.906-1.047,1.797-1.734,2.672c-0.469,0.562-0.969,1.047-1.5,1.453
	c-0.531,0.375-1.078,0.562-1.641,0.562c-0.906,0-1.688-0.188-2.344-0.562c-0.688-0.406-1.25-0.922-1.688-1.547
	c-0.688-1.031-1.109-2.312-1.266-3.844c-0.031-0.469-0.047-0.938-0.047-1.406c0-1.062,0.109-2.141,0.328-3.234
	c0.5-2.406,1.453-4.562,2.859-6.469c1.438-1.938,3.172-2.922,5.203-2.953h0.047c0.531,0,0.984,0.094,1.359,0.281
	c0.375,0.219,0.688,0.484,0.938,0.797c0.5,0.625,0.797,1.344,0.891,2.156c0.125,0.844,0.125,1.516,0,2.016
	C250.514,17.644,250.295,17.675,250.014,17.613z"/>
<path fill="#6A3C84" stroke="#6A3C84" stroke-width="0.25" stroke-miterlimit="10" d="M270.873,17.05
	c-0.312-0.094-0.5-0.25-0.562-0.469c0.344-0.438,0.422-1.188,0.234-2.25c-0.219-1.094-0.688-1.656-1.406-1.688
	c-1.125-0.031-2,0.766-2.625,2.391c-0.656,1.656-1.062,3.578-1.219,5.766c-0.062,0.938-0.078,1.891-0.047,2.859
	c0,0.969,0.062,1.891,0.188,2.766c0.219,1.688,0.578,3.156,1.078,4.406c0.5,1.219,1.156,1.953,1.969,2.203
	c0.781,0.219,1.531,0.219,2.25,0c0.688-0.188,1.328-0.531,1.922-1.031c1.125-0.906,2.078-2.172,2.859-3.797s1.375-3.156,1.781-4.594
	c0.219-0.125,0.438-0.172,0.656-0.141c0.188,0,0.391,0.078,0.609,0.234c-0.438,1.562-1.078,3.266-1.922,5.109
	c-0.875,1.844-1.969,3.297-3.281,4.359c-0.719,0.562-1.5,0.969-2.344,1.219c-0.406,0.094-0.844,0.141-1.312,0.141
	s-0.969-0.062-1.5-0.188c-1.594-0.406-2.938-1.062-4.031-1.969c-1.094-0.875-1.953-1.891-2.578-3.047
	c-0.656-1.219-1.078-2.547-1.266-3.984c-0.125-0.688-0.188-1.391-0.188-2.109c0-0.688,0.062-1.391,0.188-2.109
	c0.344-2.594,1.312-4.859,2.906-6.797c1.469-1.812,3.281-2.719,5.438-2.719h0.422c0.5,0.031,0.922,0.156,1.266,0.375
	s0.625,0.5,0.844,0.844c0.406,0.625,0.625,1.344,0.656,2.156c0.031,0.844-0.062,1.516-0.281,2.016
	C271.42,17.097,271.186,17.113,270.873,17.05z"/>
<path fill="#6A3C84" stroke="#6A3C84" stroke-width="0.25" stroke-miterlimit="10" d="M287.232,17.613
	c-0.25-0.062-0.469-0.156-0.656-0.281c0.312-0.5,0.312-1.312,0-2.438c-0.344-1.125-0.953-1.672-1.828-1.641
	c-0.562,0-1.109,0.516-1.641,1.547c-0.531,1-0.984,2.219-1.359,3.656c-0.219,0.812-0.406,1.641-0.562,2.484
	c-0.156,0.875-0.297,1.719-0.422,2.531c-0.25,2-0.312,3.766-0.188,5.297c0.094,1.531,0.453,2.312,1.078,2.344
	c0.844,0.031,1.812-0.859,2.906-2.672c1.125-1.781,2.109-3.797,2.953-6.047c0.469-1.25,0.859-2.469,1.172-3.656
	c0.344-1.219,0.594-2.312,0.75-3.281c0.156-0.406,0.516-0.531,1.078-0.375c0.562,0.125,0.906,0.438,1.031,0.938
	c-0.156,0.156-0.281,1-0.375,2.531c-0.125,1.531-0.172,3.266-0.141,5.203c0,0.844,0.016,1.688,0.047,2.531
	c0.031,0.812,0.078,1.609,0.141,2.391c0.125,1.406,0.312,2.609,0.562,3.609c0.281,0.969,0.625,1.484,1.031,1.547
	c0.562,0.094,1.172-0.391,1.828-1.453c0.625-1.094,1.219-2.328,1.781-3.703c0.375-0.906,0.719-1.812,1.031-2.719l0.797-2.297
	c0.219-0.094,0.438-0.141,0.656-0.141c0.219,0.031,0.438,0.094,0.656,0.188l-0.844,2.484c-0.344,1-0.734,2.031-1.172,3.094
	c-0.688,1.562-1.453,2.969-2.297,4.219c-0.781,1.156-1.578,1.734-2.391,1.734c-0.062,0-0.141-0.016-0.234-0.047
	c-0.75-0.062-1.406-0.312-1.969-0.75s-1.047-0.953-1.453-1.547c-0.75-1.156-1.266-2.438-1.547-3.844
	c-0.281-1.375-0.422-2.422-0.422-3.141l-0.75,1.688c-0.469,0.906-1.047,1.797-1.734,2.672c-0.469,0.562-0.969,1.047-1.5,1.453
	c-0.531,0.375-1.078,0.562-1.641,0.562c-0.906,0-1.688-0.188-2.344-0.562c-0.688-0.406-1.25-0.922-1.688-1.547
	c-0.688-1.031-1.109-2.312-1.266-3.844c-0.031-0.469-0.047-0.938-0.047-1.406c0-1.062,0.109-2.141,0.328-3.234
	c0.5-2.406,1.453-4.562,2.859-6.469c1.438-1.938,3.172-2.922,5.203-2.953h0.047c0.531,0,0.984,0.094,1.359,0.281
	c0.375,0.219,0.688,0.484,0.938,0.797c0.5,0.625,0.797,1.344,0.891,2.156c0.125,0.844,0.125,1.516,0,2.016
	C287.732,17.644,287.514,17.675,287.232,17.613z"/>
<path fill="#6A3C84" stroke="#6A3C84" stroke-width="0.25" stroke-miterlimit="10" d="M323.045,13.582
	c0.719-0.938,1.766-1.359,3.141-1.266c1.969,0.125,3.391,1.234,4.266,3.328c0.75,1.719,1.125,3.562,1.125,5.531
	c0,0.406-0.016,0.828-0.047,1.266c-0.125,1.688-0.5,3.297-1.125,4.828c-0.594,1.531-1.453,2.766-2.578,3.703
	c-0.688,0.625-1.484,1.078-2.391,1.359c-0.656,0.25-1.375,0.375-2.156,0.375c-0.25,0-0.516-0.016-0.797-0.047
	c-0.875-0.094-1.672-0.344-2.391-0.75s-1.344-0.938-1.875-1.594c-0.531-0.625-0.984-1.344-1.359-2.156
	c-0.344-0.812-0.609-1.688-0.797-2.625c-0.219-1.031-0.328-2.094-0.328-3.188c0-0.688,0.047-1.391,0.141-2.109
	c0.219-1.844,0.734-3.484,1.547-4.922c0.531-0.969,1.203-1.781,2.016-2.438c0.781-0.688,1.703-1.156,2.766-1.406
	c0.062-0.031,0.125-0.047,0.188-0.047c0.312,0.031,0.531,0.172,0.656,0.422c0.156,0.344,0.125,0.656-0.094,0.938
	c-0.625,0.094-1.188,0.312-1.688,0.656c-0.5,0.375-0.938,0.844-1.312,1.406c-0.719,1.062-1.219,2.375-1.5,3.938
	c-0.312,1.562-0.406,3.141-0.281,4.734c0.125,2,0.578,3.781,1.359,5.344c0.75,1.562,1.812,2.406,3.188,2.531
	c0.375,0.031,0.734-0.094,1.078-0.375s0.672-0.688,0.984-1.219c0.562-0.938,1.062-2.188,1.5-3.75
	c0.406-1.562,0.719-3.141,0.938-4.734c0.25-2,0.297-3.797,0.141-5.391s-0.609-2.438-1.359-2.531c-1-0.125-1.734,0.188-2.203,0.938
	c-0.438,0.719-0.562,1.297-0.375,1.734c-0.031,0.25-0.188,0.406-0.469,0.469s-0.516,0-0.703-0.188
	C322.061,15.441,322.326,14.519,323.045,13.582z"/>
<path fill="#6A3C84" stroke="#6A3C84" stroke-width="0.25" stroke-miterlimit="10" d="M336.17,16.113
	c0.156,1.406,0.266,2.719,0.328,3.938c0.125-0.406,0.469-1.297,1.031-2.672c0.562-1.406,1.359-2.578,2.391-3.516
	c0.469-0.406,0.969-0.719,1.5-0.938c0.562-0.219,1.156-0.281,1.781-0.188c1,0.125,1.797,0.516,2.391,1.172
	c0.562,0.656,1,1.484,1.312,2.484c0.281,1.031,0.453,2.188,0.516,3.469c0.031,1.281,0.016,2.578-0.047,3.891
	c-0.156,2.469-0.328,4.703-0.516,6.703c-0.188,2.031,0.062,3.141,0.75,3.328c0.906,0.25,1.812-0.172,2.719-1.266
	s1.703-2.359,2.391-3.797c0.469-0.969,0.875-1.906,1.219-2.812s0.609-1.641,0.797-2.203c0.219-0.094,0.438-0.172,0.656-0.234
	s0.438-0.016,0.656,0.141c-0.375,1.344-1.031,3.094-1.969,5.25c-0.906,2.125-2.016,3.797-3.328,5.016
	c-0.562,0.531-1.156,0.922-1.781,1.172c-0.375,0.156-0.75,0.219-1.125,0.188c-0.281,0-0.547-0.031-0.797-0.094
	c-1.094-0.281-1.812-1.266-2.156-2.953c-0.375-1.688-0.609-3.562-0.703-5.625c-0.062-0.906-0.109-1.812-0.141-2.719
	c0-0.875-0.031-1.734-0.094-2.578c-0.062-1.5-0.203-2.781-0.422-3.844c-0.188-1.094-0.578-1.688-1.172-1.781
	c-0.562-0.094-1.125,0.062-1.688,0.469s-1.078,0.938-1.547,1.594c-0.719,0.969-1.297,2.031-1.734,3.188
	c-0.438,1.188-0.672,2.031-0.703,2.531c0,1.312,0.016,2.781,0.047,4.406v4.219c-0.5,0.594-1.031,0.812-1.594,0.656
	c-0.562-0.188-0.922-0.594-1.078-1.219c0.281,0.031,0.422-0.938,0.422-2.906c0.031-2,0-4.172-0.094-6.516
	c-0.094-1.906-0.219-3.672-0.375-5.297c-0.156-1.656-0.312-2.703-0.469-3.141c0.219-0.438,0.578-0.734,1.078-0.891
	c0.094-0.031,0.188-0.047,0.281-0.047c0.375,0,0.688,0.234,0.938,0.703C335.904,13.769,336.014,14.675,336.17,16.113z"/>
<path fill="#6A3C84" stroke="#6A3C84" stroke-width="0.25" stroke-miterlimit="10" d="M364.436,21.691
	c0.844,1.156,1.562,2.375,2.156,3.656c0.375,0.781,0.641,1.562,0.797,2.344c0.094-0.062,0.172-0.125,0.234-0.188
	c1.531-1.094,2.453-2.219,2.766-3.375c0.312-0.25,0.562-0.391,0.75-0.422c0.219,0,0.422,0.125,0.609,0.375
	c-0.156,0.656-0.469,1.297-0.938,1.922c-0.469,0.594-1.016,1.188-1.641,1.781l-1.547,1.312v0.188
	c0.062,1.062-0.031,2.031-0.281,2.906s-0.594,1.641-1.031,2.297c-0.844,1.219-1.859,2.031-3.047,2.438
	c-0.531,0.188-1.016,0.281-1.453,0.281c-0.531,0-1.016-0.156-1.453-0.469c-0.656-0.438-1.031-0.891-1.125-1.359
	c-0.094-0.5,0-0.984,0.281-1.453c0.312-0.531,0.797-1.062,1.453-1.594c0.625-0.531,1.344-1.078,2.156-1.641l0.891-0.656v-0.609
	c-0.031-2.062-0.781-4.156-2.25-6.281l-4.031-5.438c-0.25,1.062-0.516,2.078-0.797,3.047c-0.188,0.75-0.375,1.438-0.562,2.062
	c-0.188,0.656-0.328,1.188-0.422,1.594c-0.219,0.156-0.438,0.219-0.656,0.188s-0.453-0.109-0.703-0.234
	c0.156-0.469,0.344-1.062,0.562-1.781c0.188-0.719,0.406-1.484,0.656-2.297l0.984-3.797c-0.5-0.688-0.953-1.359-1.359-2.016
	c-0.531-0.844-0.859-1.594-0.984-2.25c-0.062-0.375-0.094-0.719-0.094-1.031c0-0.219,0.016-0.422,0.047-0.609
	c0.062-0.469,0.188-0.859,0.375-1.172c0.406-0.625,0.953-0.953,1.641-0.984h0.094c0.625,0,1.172,0.266,1.641,0.797
	c0.25,0.281,0.438,0.656,0.562,1.125s0.172,1.031,0.141,1.688c-0.094,0.844-0.25,1.797-0.469,2.859l2.719,2.859
	C362.295,18.972,363.404,20.285,364.436,21.691z M356.982,9.55c-0.625,0-0.781,0.797-0.469,2.391
	c0.062,0.344,0.234,0.734,0.516,1.172c0.125,0.188,0.25,0.391,0.375,0.609c0.156-0.75,0.266-1.391,0.328-1.922
	C357.857,10.332,357.607,9.582,356.982,9.55z M361.342,35.238c0.562,0.375,1.156-0.094,1.781-1.406
	c0.312-0.656,0.531-1.344,0.656-2.062c-0.875,0.656-1.594,1.234-2.156,1.734C360.811,34.191,360.717,34.769,361.342,35.238z"/>
</svg>
